<svg width="30" height="38" viewBox="0 0 30 38" fill="none" xmlns="http://www.w3.org/2000/svg">
<path fill-rule="evenodd" clip-rule="evenodd" d="M3.17478 16.3014C2.45368 19.294 2.23127 22.8507 3.7275 25.2846C5.0002 27.3549 6.98722 28.5269 8.72298 29.1835C9.3516 29.4213 9.93669 29.5873 10.4256 29.702L7.86309 23.2223L4.13403 22.1265C3.60415 21.9708 3.30082 21.415 3.45654 20.8851C3.61225 20.3553 4.16803 20.0519 4.69791 20.2076L6.93032 20.8637L5.04419 16.0943C4.84108 15.5807 5.09278 14.9997 5.60636 14.7966C6.11994 14.5935 6.70093 14.8452 6.90404 15.3588L10.0562 23.3294L11.3763 21.2286C11.6701 20.761 12.2874 20.6201 12.7551 20.9139C13.2227 21.2078 13.3636 21.8251 13.0697 22.2927L10.9685 25.6365L12.247 28.8694C12.3684 28.7037 12.4925 28.5229 12.616 28.3275C13.39 27.1019 14.1248 25.3205 14.0015 23.0543C13.899 21.1722 12.6109 19.0205 10.5865 17.0265C8.78107 15.2481 6.51091 13.7168 4.35553 12.7498C4.34606 12.7707 4.33644 12.7921 4.32665 12.814C3.97839 13.5951 3.527 14.8396 3.17478 16.3014ZM11.6483 31.7977C11.6372 31.9355 11.6367 31.9355 11.6367 31.9355L11.6336 31.9352L11.6274 31.9347L11.6086 31.933C11.5932 31.9316 11.5721 31.9296 11.5457 31.9268C11.4928 31.9213 11.4184 31.9129 11.3247 31.9007C11.1374 31.8762 10.8722 31.8362 10.5475 31.7733C9.89931 31.6476 9.0058 31.4288 8.01537 31.0541C6.04575 30.3091 3.61212 28.9159 2.0237 26.332C0.0824611 23.1742 0.487054 18.9179 1.23043 15.8328C1.61045 14.2557 2.10067 12.8952 2.50001 11.9996C2.69172 11.5696 2.88883 11.1865 3.06637 10.9415C3.11224 10.8782 3.18099 10.79 3.27047 10.7068C3.31553 10.6649 3.3872 10.6042 3.48376 10.5488C3.57388 10.4971 3.74714 10.4145 3.97987 10.4085C4.24858 10.4016 4.51372 10.5002 4.71451 10.6918C4.73437 10.7108 4.75291 10.73 4.77023 10.7493C7.27301 11.8045 9.90898 13.5518 11.99 15.6017C14.1438 17.7232 15.8557 20.3215 15.9985 22.9456C16.1498 25.7252 15.2431 27.9132 14.3069 29.3955C13.8393 30.1359 13.3616 30.7053 12.9969 31.0929C12.9579 31.1345 12.92 31.174 12.8836 31.2115C12.7857 31.4601 12.5889 31.6692 12.3208 31.7752C12.2933 31.7861 12.2657 31.7956 12.2379 31.8039L12.0369 31.9673L11.6367 31.9355L11.6483 31.7977V31.7977Z" fill="#005359"/>
<path fill-rule="evenodd" clip-rule="evenodd" d="M16.6784 4.84599C14.5048 7.02575 12.4634 9.94671 12.4738 12.8037C12.4827 15.2339 13.5691 17.269 14.7093 18.7332C15.1223 19.2635 15.5354 19.7098 15.8931 20.0623L17.0784 13.1959L14.465 10.3189C14.0936 9.91015 14.124 9.27771 14.5328 8.90636C14.9415 8.535 15.574 8.56535 15.9453 8.97414L17.5099 10.6964L18.3824 5.64237C18.4763 5.09813 18.9937 4.7331 19.5379 4.82705C20.0821 4.921 20.4472 5.43835 20.3532 5.98259L18.8951 14.429L21.1159 13.3225C21.6103 13.0762 22.2107 13.2773 22.4569 13.7716C22.7032 14.2659 22.5022 14.8663 22.0078 15.1126L18.4731 16.8737L17.8454 20.5099C18.1328 20.4273 18.4455 20.3209 18.7709 20.1841C20.1295 19.6128 21.6847 18.5242 22.5836 16.4086C24.6864 11.4593 23.2044 6.31331 19.6133 2.37586C19.5704 2.40448 19.5251 2.43521 19.4773 2.46813C18.7734 2.95371 17.7401 3.7813 16.6784 4.84599ZM15.846 22.4881C15.7648 22.6 15.7645 22.5997 15.7645 22.5997L15.7619 22.5978L15.7569 22.5942L15.7417 22.583C15.7293 22.5737 15.7124 22.5611 15.6912 22.5449C15.649 22.5127 15.5898 22.4668 15.5162 22.4076C15.369 22.2891 15.1634 22.117 14.9189 21.8942C14.4309 21.4495 13.7819 20.7975 13.1313 19.962C11.8375 18.3005 10.4849 15.8441 10.4738 12.811C10.4603 9.10431 13.0215 5.68087 15.2622 3.43378C16.4077 2.28504 17.5345 1.37859 18.3417 0.821804C18.7293 0.554497 19.097 0.329971 19.3761 0.213248C19.4482 0.18309 19.5529 0.143551 19.6726 0.119121C19.7328 0.106819 19.8257 0.0922519 19.9369 0.0952444C20.0408 0.0980372 20.2317 0.117699 20.4335 0.233738C20.6573 0.36238 20.8275 0.572369 20.9042 0.82621C25.0161 5.21465 26.9442 11.2597 24.4243 17.1906C23.2715 19.9041 21.2506 21.311 19.5461 22.0277C18.6976 22.3846 17.9218 22.5737 17.3557 22.6743C17.2505 22.6929 17.1522 22.7086 17.0617 22.7218C16.8746 22.8187 16.6556 22.8576 16.432 22.819C16.3925 22.8122 16.3539 22.8031 16.3164 22.792L16.0419 22.8007L15.7645 22.5997L15.846 22.4881V22.4881Z" fill="#005359"/>
<path fill-rule="evenodd" clip-rule="evenodd" d="M22.6669 20.8235C19.8182 21.99 16.8039 23.8909 15.7058 26.5285C14.7717 28.772 14.9841 31.0692 15.4674 32.8609C15.6424 33.5098 15.8502 34.0814 16.0432 34.545L19.7981 28.6753L18.5046 25.0101C18.3208 24.4893 18.594 23.9181 19.1148 23.7343C19.6356 23.5505 20.2068 23.8237 20.3906 24.3445L21.165 26.5387L23.9288 22.2182C24.2264 21.753 24.8448 21.6171 25.31 21.9147C25.7753 22.2123 25.9111 22.8308 25.6135 23.296L20.9946 30.5163L23.4707 30.3575C24.0219 30.3221 24.4973 30.7402 24.5327 31.2914C24.5681 31.8425 24.1499 32.318 23.5988 32.3534L19.6577 32.6062L17.6693 35.7146C17.9663 35.7499 18.2958 35.7731 18.6487 35.7731C20.1226 35.7732 21.9782 35.3728 23.627 33.7712C27.4843 30.0243 28.1135 24.7063 26.3299 19.6845C26.2793 19.6943 26.2256 19.705 26.1688 19.7169C25.3317 19.8915 24.0583 20.2537 22.6669 20.8235ZM15.0593 36.7628C14.9411 36.8344 14.9409 36.8341 14.9409 36.8341L14.9393 36.8314L14.9361 36.826L14.9264 36.8098C14.9185 36.7965 14.9079 36.7782 14.8946 36.7552C14.8681 36.7091 14.8314 36.6439 14.7865 36.5607C14.6967 36.3945 14.574 36.1561 14.435 35.8559C14.1576 35.2568 13.8122 34.4042 13.5364 33.3818C12.988 31.3486 12.6936 28.5599 13.8594 25.7598C15.2841 22.3378 18.9723 20.1752 21.909 18.9727C23.4103 18.3579 24.8004 17.9593 25.7604 17.759C26.2212 17.6629 26.6473 17.5985 26.9498 17.5991C27.028 17.5993 27.1397 17.6034 27.2595 17.6273C27.3199 17.6393 27.4111 17.6619 27.5125 17.7078C27.6071 17.7506 27.7755 17.8428 27.9165 18.028C28.0729 18.2333 28.1484 18.4929 28.1207 18.7566C30.2094 24.396 29.6429 30.7158 25.0206 35.2058C22.9058 37.26 20.4975 37.7733 18.6485 37.7731C17.728 37.773 16.9395 37.6466 16.3787 37.5198C16.2745 37.4962 16.1778 37.4725 16.0893 37.4496C15.8793 37.4664 15.6623 37.4173 15.4712 37.295C15.4374 37.2734 15.4054 37.2501 15.3751 37.2253L15.1187 37.1269L14.9409 36.8341L15.0593 36.7628V36.7628Z" fill="#005359"/>
</svg>
