<svg width="16" height="24" viewBox="0 0 16 24" fill="none" xmlns="http://www.w3.org/2000/svg">
<path d="M6.69974 22C6.69974 22.5523 7.14746 23 7.69974 23C8.25203 23 8.69974 22.5523 8.69974 22H6.69974ZM8.69974 5.74194C8.69974 5.18965 8.25203 4.74194 7.69974 4.74194C7.14746 4.74194 6.69974 5.18965 6.69974 5.74194H8.69974ZM4.86502 9.43971C4.42954 9.10005 3.80116 9.17773 3.46149 9.61321C3.12183 10.0487 3.1995 10.6771 3.63499 11.0167L4.86502 9.43971ZM11.8834 14.4574C12.3286 14.1306 12.4246 13.5048 12.0978 13.0596C11.771 12.6143 11.1452 12.5183 10.7 12.8451L11.8834 14.4574ZM7.44579 22L7.00539 22.8978L7.31224 23.0483L7.64703 22.9795L7.44579 22ZM1.11075 13.9777L0.125958 14.1515L1.11075 13.9777ZM7.44572 1.13049L6.54157 0.703266L6.18681 1.45406L6.85963 1.94074L7.44572 1.13049ZM13.6447 15.8653L14.6182 16.0941L13.6447 15.8653ZM8.69974 22V16.2877H6.69974V22H8.69974ZM8.69974 16.2877V12.9189H6.69974V16.2877H8.69974ZM8.69974 12.9189V5.74194H6.69974L6.69974 12.9189H8.69974ZM8.31476 12.1304L4.86502 9.43971L3.63499 11.0167L7.08472 13.7074L8.31476 12.1304ZM10.7 12.8451L7.10803 15.4816L8.29145 17.0939L11.8834 14.4574L10.7 12.8451ZM7.44579 22C7.8862 21.1022 7.8865 21.1023 7.88678 21.1025C7.88685 21.1025 7.88711 21.1026 7.88724 21.1027C7.88751 21.1028 7.8877 21.1029 7.88781 21.103C7.88802 21.1031 7.88792 21.103 7.8875 21.1028C7.88666 21.1024 7.88457 21.1014 7.88125 21.0997C7.87461 21.0963 7.86308 21.0905 7.84697 21.0821C7.81473 21.0653 7.7642 21.0385 7.69772 21.0016C7.56466 20.9277 7.36833 20.8139 7.12743 20.6602C6.64442 20.3519 5.98902 19.8872 5.30714 19.2668C3.93448 18.0179 2.51771 16.1973 2.09555 13.804L0.125958 14.1515C0.652842 17.1384 2.40359 19.3289 3.96119 20.7461C4.74444 21.4587 5.49485 21.9908 6.05137 22.346C6.33024 22.524 6.5621 22.6587 6.7273 22.7504C6.80994 22.7962 6.87605 22.8314 6.92318 22.8559C6.94674 22.8682 6.96558 22.8778 6.97938 22.8848C6.98628 22.8883 6.99192 22.8911 6.99627 22.8933C6.99844 22.8944 7.00029 22.8953 7.00181 22.896C7.00257 22.8964 7.00325 22.8967 7.00385 22.897C7.00414 22.8972 7.00453 22.8974 7.00468 22.8975C7.00504 22.8976 7.00539 22.8978 7.44579 22ZM2.09555 13.804C1.59925 10.9904 3.11406 7.76476 4.88518 5.24702C5.75028 4.01725 6.6277 3.02595 7.2388 2.42769C7.55831 2.1149 7.75955 1.95458 7.82973 1.90989C7.84514 1.90008 7.8176 1.91985 7.75905 1.94272C7.72937 1.95431 7.6646 1.97752 7.57514 1.9905C7.49301 2.00241 7.31867 2.01645 7.11354 1.94137C6.87459 1.85391 6.67412 1.67363 6.56387 1.43465C6.46891 1.22881 6.47136 1.04678 6.47846 0.959907C6.48614 0.866099 6.50658 0.797633 6.51665 0.76703C6.528 0.732563 6.53827 0.710261 6.54157 0.703266L8.34986 1.55772C8.3816 1.49055 8.455 1.32841 8.47181 1.12297C8.48065 1.01483 8.4809 0.815699 8.37993 0.596832C8.26367 0.344822 8.05338 0.155603 7.80095 0.0632121C7.58233 -0.0168039 7.39083 -0.00369841 7.28802 0.0112153C7.17787 0.0271943 7.08888 0.0573392 7.03158 0.0797145C6.91778 0.124151 6.8214 0.180912 6.75547 0.222898C6.50028 0.3854 6.17608 0.669212 5.83968 0.998544C5.13897 1.68453 4.18276 2.76945 3.24938 4.09631C1.42354 6.69183 -0.517954 10.5011 0.125958 14.1515L2.09555 13.804ZM6.85963 1.94074C11.3793 5.21007 13.9491 10.1989 12.6712 15.6365L14.6182 16.0941C16.1263 9.67677 13.0271 3.9336 8.03181 0.320246L6.85963 1.94074ZM12.6712 15.6365C12.1453 17.8743 10.7979 19.2115 9.5563 20.0057C8.93208 20.4049 8.33974 20.6625 7.90578 20.8192C7.68961 20.8973 7.51516 20.9496 7.3989 20.9814C7.34084 20.9973 7.29754 21.008 7.27106 21.0143C7.25783 21.0174 7.24883 21.0195 7.24432 21.0205C7.24206 21.021 7.24093 21.0212 7.24096 21.0212C7.24098 21.0212 7.24128 21.0211 7.24188 21.021C7.24218 21.0209 7.24255 21.0209 7.243 21.0208C7.24322 21.0207 7.24361 21.0207 7.24372 21.0206C7.24413 21.0205 7.24456 21.0205 7.44579 22C7.64703 22.9795 7.64749 22.9794 7.64798 22.9793C7.64816 22.9793 7.64867 22.9792 7.64904 22.9791C7.64979 22.979 7.65062 22.9788 7.65153 22.9786C7.65334 22.9782 7.65546 22.9778 7.65788 22.9773C7.66272 22.9762 7.66878 22.9749 7.67602 22.9733C7.6905 22.9701 7.70971 22.9658 7.73338 22.9601C7.78071 22.9489 7.84597 22.9326 7.92693 22.9104C8.08872 22.8661 8.31415 22.7982 8.58536 22.7002C9.12612 22.5049 9.85844 22.1865 10.6339 21.6905C12.1916 20.6943 13.9437 18.9642 14.6182 16.0941L12.6712 15.6365Z" fill="#005359"/>
</svg>
